<mxfile host="app.diagrams.net" agent="Mozilla/5.0 (Windows NT 10.0; Win64; x64; rv:138.0) Gecko/20100101 Firefox/138.0" version="27.0.9">
  <diagram name="Page-1" id="ULSIfmY4-zn541Vn9oWR">
    <mxGraphModel dx="928" dy="641" grid="1" gridSize="10" guides="1" tooltips="1" connect="1" arrows="1" fold="1" page="1" pageScale="1" pageWidth="1169" pageHeight="827" math="0" shadow="0">
      <root>
        <mxCell id="0" />
        <mxCell id="1" parent="0" />
        <mxCell id="v7PXUwhrs-9iew_EjGGd-1" value="" style="rounded=0;whiteSpace=wrap;html=1;" parent="1" vertex="1">
          <mxGeometry x="100" y="250" width="320" height="250" as="geometry" />
        </mxCell>
        <mxCell id="v7PXUwhrs-9iew_EjGGd-2" value="BMP280" style="rounded=0;whiteSpace=wrap;html=1;" parent="1" vertex="1">
          <mxGeometry x="210" y="180" width="90" height="30" as="geometry" />
        </mxCell>
        <mxCell id="v7PXUwhrs-9iew_EjGGd-3" value="Raspberry PI" style="text;html=1;align=center;verticalAlign=middle;whiteSpace=wrap;rounded=0;" parent="1" vertex="1">
          <mxGeometry x="110" y="230" width="100" height="20" as="geometry" />
        </mxCell>
        <mxCell id="v7PXUwhrs-9iew_EjGGd-5" value="" style="endArrow=none;html=1;rounded=0;" parent="1" edge="1">
          <mxGeometry width="50" height="50" relative="1" as="geometry">
            <mxPoint x="252.5" y="250" as="sourcePoint" />
            <mxPoint x="252.5" y="210" as="targetPoint" />
          </mxGeometry>
        </mxCell>
        <mxCell id="v7PXUwhrs-9iew_EjGGd-8" value="SCL" style="text;html=1;align=center;verticalAlign=middle;whiteSpace=wrap;rounded=0;rotation=-90;" parent="1" vertex="1">
          <mxGeometry x="227.5" y="225" width="40" height="10" as="geometry" />
        </mxCell>
        <mxCell id="v7PXUwhrs-9iew_EjGGd-9" value="" style="endArrow=none;html=1;rounded=0;" parent="1" edge="1">
          <mxGeometry width="50" height="50" relative="1" as="geometry">
            <mxPoint x="267.5" y="250" as="sourcePoint" />
            <mxPoint x="267.5" y="210" as="targetPoint" />
          </mxGeometry>
        </mxCell>
        <mxCell id="v7PXUwhrs-9iew_EjGGd-10" value="SDA" style="text;html=1;align=center;verticalAlign=middle;whiteSpace=wrap;rounded=0;rotation=-90;" parent="1" vertex="1">
          <mxGeometry x="242.5" y="225" width="40" height="10" as="geometry" />
        </mxCell>
        <mxCell id="v7PXUwhrs-9iew_EjGGd-11" value="" style="endArrow=none;html=1;rounded=0;" parent="1" edge="1">
          <mxGeometry width="50" height="50" relative="1" as="geometry">
            <mxPoint x="237.5" y="250" as="sourcePoint" />
            <mxPoint x="237.5" y="210" as="targetPoint" />
          </mxGeometry>
        </mxCell>
        <mxCell id="v7PXUwhrs-9iew_EjGGd-12" value="VCC" style="text;html=1;align=center;verticalAlign=middle;whiteSpace=wrap;rounded=0;rotation=-90;" parent="1" vertex="1">
          <mxGeometry x="212.5" y="225" width="40" height="10" as="geometry" />
        </mxCell>
        <mxCell id="v7PXUwhrs-9iew_EjGGd-13" value="" style="endArrow=none;html=1;rounded=0;" parent="1" edge="1">
          <mxGeometry width="50" height="50" relative="1" as="geometry">
            <mxPoint x="282.5" y="250" as="sourcePoint" />
            <mxPoint x="282.5" y="210" as="targetPoint" />
          </mxGeometry>
        </mxCell>
        <mxCell id="v7PXUwhrs-9iew_EjGGd-14" value="GND" style="text;html=1;align=center;verticalAlign=middle;whiteSpace=wrap;rounded=0;rotation=-90;" parent="1" vertex="1">
          <mxGeometry x="257.5" y="225" width="40" height="10" as="geometry" />
        </mxCell>
        <mxCell id="v7PXUwhrs-9iew_EjGGd-15" value="" style="shape=cylinder3;whiteSpace=wrap;html=1;boundedLbl=1;backgroundOutline=1;size=15;" parent="1" vertex="1">
          <mxGeometry x="130" y="280" width="40" height="60" as="geometry" />
        </mxCell>
        <mxCell id="v7PXUwhrs-9iew_EjGGd-16" value="SQLITE" style="text;html=1;align=center;verticalAlign=middle;whiteSpace=wrap;rounded=0;" parent="1" vertex="1">
          <mxGeometry x="120" y="260" width="60" height="20" as="geometry" />
        </mxCell>
        <mxCell id="v7PXUwhrs-9iew_EjGGd-23" style="edgeStyle=orthogonalEdgeStyle;rounded=0;orthogonalLoop=1;jettySize=auto;html=1;exitX=1;exitY=0.25;exitDx=0;exitDy=0;entryX=0;entryY=1;entryDx=0;entryDy=0;endArrow=none;endFill=0;" parent="1" source="v7PXUwhrs-9iew_EjGGd-17" target="v7PXUwhrs-9iew_EjGGd-8" edge="1">
          <mxGeometry relative="1" as="geometry">
            <Array as="points">
              <mxPoint x="190" y="393" />
              <mxPoint x="190" y="260" />
              <mxPoint x="253" y="260" />
            </Array>
          </mxGeometry>
        </mxCell>
        <mxCell id="v7PXUwhrs-9iew_EjGGd-26" style="edgeStyle=orthogonalEdgeStyle;rounded=0;orthogonalLoop=1;jettySize=auto;html=1;exitX=1;exitY=0.5;exitDx=0;exitDy=0;entryX=0;entryY=1;entryDx=0;entryDy=0;endArrow=none;endFill=0;" parent="1" source="v7PXUwhrs-9iew_EjGGd-17" target="v7PXUwhrs-9iew_EjGGd-10" edge="1">
          <mxGeometry relative="1" as="geometry">
            <Array as="points">
              <mxPoint x="200" y="400" />
              <mxPoint x="200" y="270" />
              <mxPoint x="268" y="270" />
            </Array>
          </mxGeometry>
        </mxCell>
        <mxCell id="v7PXUwhrs-9iew_EjGGd-17" value="API" style="rounded=0;whiteSpace=wrap;html=1;" parent="1" vertex="1">
          <mxGeometry x="125" y="385" width="50" height="30" as="geometry" />
        </mxCell>
        <mxCell id="v7PXUwhrs-9iew_EjGGd-18" value="" style="shape=flexArrow;endArrow=classic;startArrow=classic;html=1;rounded=0;endSize=2.9951048951048946;strokeWidth=1;entryX=0.5;entryY=1;entryDx=0;entryDy=0;entryPerimeter=0;exitX=0.5;exitY=0;exitDx=0;exitDy=0;width=6.526315789473684;startSize=2.772105263157895;startWidth=9.33052961024989;endWidth=9.33052961024989;" parent="1" source="v7PXUwhrs-9iew_EjGGd-17" target="v7PXUwhrs-9iew_EjGGd-15" edge="1">
          <mxGeometry width="100" height="100" relative="1" as="geometry">
            <mxPoint x="60" y="450" as="sourcePoint" />
            <mxPoint x="160" y="350" as="targetPoint" />
          </mxGeometry>
        </mxCell>
        <mxCell id="v7PXUwhrs-9iew_EjGGd-20" value="Webpage" style="swimlane;whiteSpace=wrap;html=1;" parent="1" vertex="1">
          <mxGeometry x="290" y="280" width="111" height="135" as="geometry" />
        </mxCell>
        <mxCell id="v7PXUwhrs-9iew_EjGGd-28" value="" style="endArrow=classic;startArrow=classic;html=1;rounded=0;exitX=1;exitY=0.75;exitDx=0;exitDy=0;" parent="1" source="v7PXUwhrs-9iew_EjGGd-17" edge="1">
          <mxGeometry width="50" height="50" relative="1" as="geometry">
            <mxPoint x="300" y="390" as="sourcePoint" />
            <mxPoint x="290" y="408" as="targetPoint" />
          </mxGeometry>
        </mxCell>
        <mxCell id="a1DDXn8paHnPz2f7sp2P-1" value="Express" style="rounded=1;whiteSpace=wrap;html=1;" vertex="1" parent="1">
          <mxGeometry x="116.5" y="440" width="67" height="35" as="geometry" />
        </mxCell>
        <mxCell id="a1DDXn8paHnPz2f7sp2P-2" value="NGINX" style="rounded=1;whiteSpace=wrap;html=1;" vertex="1" parent="1">
          <mxGeometry x="312" y="440" width="67" height="35" as="geometry" />
        </mxCell>
        <mxCell id="a1DDXn8paHnPz2f7sp2P-3" value="&lt;span style=&quot;white-space: pre;&quot;&gt;&#x9;&lt;/span&gt;Javascript/Express" style="rounded=1;whiteSpace=wrap;html=1;align=left;verticalAlign=top;" vertex="1" parent="1">
          <mxGeometry x="620" y="275" width="320" height="200" as="geometry" />
        </mxCell>
        <mxCell id="a1DDXn8paHnPz2f7sp2P-5" value="GET" style="ellipse;whiteSpace=wrap;html=1;fillColor=#d4f1c9;strokeColor=#82b366;" vertex="1" parent="a1DDXn8paHnPz2f7sp2P-3">
          <mxGeometry x="180.0042857142857" y="90" width="57.14285714285714" height="30" as="geometry" />
        </mxCell>
        <mxCell id="a1DDXn8paHnPz2f7sp2P-7" value="GET" style="ellipse;whiteSpace=wrap;html=1;fillColor=#d4f1c9;strokeColor=#82b366;" vertex="1" parent="a1DDXn8paHnPz2f7sp2P-3">
          <mxGeometry x="180.0042857142857" y="140" width="57.14285714285714" height="30" as="geometry" />
        </mxCell>
        <mxCell id="a1DDXn8paHnPz2f7sp2P-8" value="POST" style="ellipse;whiteSpace=wrap;html=1;fillColor=#fdd8a9;strokeColor=#d79b00;" vertex="1" parent="a1DDXn8paHnPz2f7sp2P-3">
          <mxGeometry x="249.99571428571429" y="140" width="57.14285714285714" height="30" as="geometry" />
        </mxCell>
        <mxCell id="a1DDXn8paHnPz2f7sp2P-15" value="Interface Pressure" style="rounded=1;whiteSpace=wrap;html=1;" vertex="1" parent="a1DDXn8paHnPz2f7sp2P-3">
          <mxGeometry x="22.86" y="40" width="147.14" height="30" as="geometry" />
        </mxCell>
        <mxCell id="a1DDXn8paHnPz2f7sp2P-4" value="/api/pressure/history" style="rounded=0;whiteSpace=wrap;html=1;" vertex="1" parent="a1DDXn8paHnPz2f7sp2P-3">
          <mxGeometry x="22.86" y="90" width="147.14" height="30" as="geometry" />
        </mxCell>
        <mxCell id="a1DDXn8paHnPz2f7sp2P-6" value="/api/migraine" style="rounded=0;whiteSpace=wrap;html=1;" vertex="1" parent="a1DDXn8paHnPz2f7sp2P-3">
          <mxGeometry x="22.86" y="140" width="147.14" height="30" as="geometry" />
        </mxCell>
        <mxCell id="a1DDXn8paHnPz2f7sp2P-9" value="SQLite Database" style="shape=cylinder3;whiteSpace=wrap;html=1;boundedLbl=1;backgroundOutline=1;size=15;fillColor=#e1d5e7;strokeColor=#9673a6;" vertex="1" parent="1">
          <mxGeometry x="500" y="290" width="70" height="180" as="geometry" />
        </mxCell>
        <mxCell id="a1DDXn8paHnPz2f7sp2P-16" style="rounded=0;orthogonalLoop=1;jettySize=auto;html=1;exitX=0.25;exitY=1;exitDx=0;exitDy=0;entryX=0.5;entryY=0;entryDx=0;entryDy=0;" edge="1" parent="1" source="a1DDXn8paHnPz2f7sp2P-11" target="a1DDXn8paHnPz2f7sp2P-5">
          <mxGeometry relative="1" as="geometry">
            <Array as="points">
              <mxPoint x="835" y="340" />
            </Array>
          </mxGeometry>
        </mxCell>
        <mxCell id="a1DDXn8paHnPz2f7sp2P-17" style="rounded=0;orthogonalLoop=1;jettySize=auto;html=1;exitX=0.5;exitY=1;exitDx=0;exitDy=0;entryX=1;entryY=0;entryDx=0;entryDy=0;" edge="1" parent="1" source="a1DDXn8paHnPz2f7sp2P-11" target="a1DDXn8paHnPz2f7sp2P-7">
          <mxGeometry relative="1" as="geometry">
            <Array as="points">
              <mxPoint x="860" y="400" />
            </Array>
          </mxGeometry>
        </mxCell>
        <mxCell id="a1DDXn8paHnPz2f7sp2P-18" style="rounded=0;orthogonalLoop=1;jettySize=auto;html=1;exitX=0.75;exitY=1;exitDx=0;exitDy=0;entryX=0.5;entryY=0;entryDx=0;entryDy=0;" edge="1" parent="1" source="a1DDXn8paHnPz2f7sp2P-11" target="a1DDXn8paHnPz2f7sp2P-8">
          <mxGeometry relative="1" as="geometry">
            <Array as="points">
              <mxPoint x="885" y="400" />
            </Array>
          </mxGeometry>
        </mxCell>
        <mxCell id="a1DDXn8paHnPz2f7sp2P-11" value="Web Frontend" style="rounded=1;whiteSpace=wrap;html=1;fillColor=#fce5cd;strokeColor=#c67605;" vertex="1" parent="1">
          <mxGeometry x="810" y="180" width="100" height="60" as="geometry" />
        </mxCell>
        <mxCell id="a1DDXn8paHnPz2f7sp2P-19" style="edgeStyle=orthogonalEdgeStyle;rounded=0;orthogonalLoop=1;jettySize=auto;html=1;exitX=0;exitY=0.5;exitDx=0;exitDy=0;entryX=0.969;entryY=0.221;entryDx=0;entryDy=0;entryPerimeter=0;" edge="1" parent="1" source="a1DDXn8paHnPz2f7sp2P-15" target="a1DDXn8paHnPz2f7sp2P-9">
          <mxGeometry relative="1" as="geometry" />
        </mxCell>
        <mxCell id="a1DDXn8paHnPz2f7sp2P-22" value="Write" style="edgeLabel;html=1;align=center;verticalAlign=middle;resizable=0;points=[];" vertex="1" connectable="0" parent="a1DDXn8paHnPz2f7sp2P-19">
          <mxGeometry x="0.0019" y="1" relative="1" as="geometry">
            <mxPoint y="-11" as="offset" />
          </mxGeometry>
        </mxCell>
        <mxCell id="a1DDXn8paHnPz2f7sp2P-20" style="edgeStyle=orthogonalEdgeStyle;rounded=0;orthogonalLoop=1;jettySize=auto;html=1;exitX=0;exitY=0.5;exitDx=0;exitDy=0;entryX=1;entryY=0.5;entryDx=0;entryDy=0;entryPerimeter=0;endArrow=none;endFill=1;startArrow=classicThin;startFill=0;" edge="1" parent="1" source="a1DDXn8paHnPz2f7sp2P-4" target="a1DDXn8paHnPz2f7sp2P-9">
          <mxGeometry relative="1" as="geometry" />
        </mxCell>
        <mxCell id="a1DDXn8paHnPz2f7sp2P-24" value="Read" style="edgeLabel;html=1;align=center;verticalAlign=middle;resizable=0;points=[];" vertex="1" connectable="0" parent="a1DDXn8paHnPz2f7sp2P-20">
          <mxGeometry x="0.136" y="3" relative="1" as="geometry">
            <mxPoint y="-18" as="offset" />
          </mxGeometry>
        </mxCell>
        <mxCell id="a1DDXn8paHnPz2f7sp2P-21" style="edgeStyle=orthogonalEdgeStyle;rounded=0;orthogonalLoop=1;jettySize=auto;html=1;exitX=0;exitY=0.5;exitDx=0;exitDy=0;entryX=1;entryY=0.776;entryDx=0;entryDy=0;entryPerimeter=0;startArrow=classicThin;startFill=1;endArrow=classicThin;endFill=1;" edge="1" parent="1" source="a1DDXn8paHnPz2f7sp2P-6" target="a1DDXn8paHnPz2f7sp2P-9">
          <mxGeometry relative="1" as="geometry" />
        </mxCell>
        <mxCell id="a1DDXn8paHnPz2f7sp2P-25" value="R/W" style="edgeLabel;html=1;align=center;verticalAlign=middle;resizable=0;points=[];" vertex="1" connectable="0" parent="a1DDXn8paHnPz2f7sp2P-21">
          <mxGeometry x="0.1926" y="5" relative="1" as="geometry">
            <mxPoint y="-20" as="offset" />
          </mxGeometry>
        </mxCell>
        <mxCell id="a1DDXn8paHnPz2f7sp2P-26" value="" style="shape=flexArrow;endArrow=classic;html=1;rounded=0;entryX=0.5;entryY=1;entryDx=0;entryDy=0;exitX=0.5;exitY=0;exitDx=0;exitDy=0;width=10.566037735849058;endSize=4.054716981132075;" edge="1" parent="1" source="a1DDXn8paHnPz2f7sp2P-1" target="v7PXUwhrs-9iew_EjGGd-17">
          <mxGeometry width="50" height="50" relative="1" as="geometry">
            <mxPoint x="160" y="560" as="sourcePoint" />
            <mxPoint x="210" y="510" as="targetPoint" />
          </mxGeometry>
        </mxCell>
        <mxCell id="a1DDXn8paHnPz2f7sp2P-27" value="" style="shape=flexArrow;endArrow=classic;html=1;rounded=0;exitX=0.5;exitY=0;exitDx=0;exitDy=0;width=10.566037735849058;endSize=4.054716981132075;entryX=0.5;entryY=1;entryDx=0;entryDy=0;" edge="1" parent="1" source="a1DDXn8paHnPz2f7sp2P-2" target="v7PXUwhrs-9iew_EjGGd-20">
          <mxGeometry width="50" height="50" relative="1" as="geometry">
            <mxPoint x="312" y="455" as="sourcePoint" />
            <mxPoint x="350" y="420" as="targetPoint" />
          </mxGeometry>
        </mxCell>
      </root>
    </mxGraphModel>
  </diagram>
</mxfile>
